# xmcd CD database file
#
# Track frame offsets:
#	150
#	15500
#	32243
#	54000
#	66910
#	86078
#	104463
#	118560
#	139905
#	161875
#
# Disc length: 2303 seconds
#
# Revision: 2
# Processed by: cddbd v1.5.1PL0 Copyright (c) Steve Scherf et al.
# Submitted via: CDex 1.51
#
DISCID=8308fd0a
DTITLE=Angel Witch - Angel Witch
DYEAR=1900
DGENRE=Heavy Metal
TTITLE0=Angel Witch
TTITLE1=Atlantis
TTITLE2=White Witch
TTITLE3=Confused
TTITLE4=Sorcerers
TTITLE5=Gorgon
TTITLE6=Sweet Danger
TTITLE7=Free Man
TTITLE8=Angel Of Death
TTITLE9=Devils Tower
EXTD=
EXTT0=
EXTT1=
EXTT2=
EXTT3=
EXTT4=
EXTT5=
EXTT6=
EXTT7=
EXTT8=
EXTT9=
PLAYORDER=
